<svg width="200" height="102" viewBox="0 0 200 102" fill="none" xmlns="http://www.w3.org/2000/svg">
<g clip-path="url(#clip0_1224_8113)">
<path d="M0 43.4H127.3V62.6H0V43.4ZM5.9 20.1C5.9 7.2 28.8 0 63.6 0C98.4 0 121.4 7.2 121.4 20.1C121.4 33.1 98.5 40 63.6 40C28.6 40 5.9 33 5.9 20.1ZM10.3 67.8H117V101.3H10.3V67.8ZM83.8 20.1C83.8 16.6 74.4 15.5 63.5 15.5C52.6 15.5 43.4 16.6 43.4 20.1C43.4 23.6 52.6 24.5 63.5 24.5C74.4 24.5 83.8 23.5 83.8 20.1ZM43.4 86.1H83.8V80.8H43.4V86.1Z" fill="#231815"/>
<path d="M200 39.3V60.4H194.2V100H175V83.9C161 87.9 142.7 90.7 129.2 91.7L128 65.5L133 65.3L131.3 48.3L130.3 31.5C136.2 30.6 142.2 30.1 148.1 30.1L148.8 64.7L151.6 64.6L153.1 64.4L152.6 30C158.5 30 164.3 30.5 170.2 31.4L169.1 48.2L167.9 62L175 60.8V1.29999H194.2V39.4L200 39.3ZM171.9 27.5C158.5 25 144.7 24.6 131.2 26.3C129 26.6 126.8 27 124.7 27.5V4.89999H171.9V27.5Z" fill="#231815"/>
</g>
<defs>
<clipPath id="clip0_1224_8113">
<rect width="200" height="102" fill="white"/>
</clipPath>
</defs>
</svg>
