<svg width="32" height="29" viewBox="0 0 32 29" fill="none" xmlns="http://www.w3.org/2000/svg">
<path d="M9.22798 14.5V17.1367H6.59131V14.5H9.22798Z" fill="#EFEFEF"/>
<path d="M14.5 14.5H11.8633V17.1367H14.5V14.5Z" fill="#EFEFEF"/>
<path d="M17.1367 14.5H19.7734V17.1367H17.1367V14.5Z" fill="#EFEFEF"/>
<path d="M25.0454 17.1367V14.5H22.4087V17.1367H25.0454Z" fill="#EFEFEF"/>
<path d="M9.22798 19.7734V22.4101H6.59131V19.7734H9.22798Z" fill="#EFEFEF"/>
<path d="M14.5 19.7734H11.8633V22.4101H14.5V19.7734Z" fill="#EFEFEF"/>
<path d="M17.1367 19.7734H19.7734V22.4101H17.1367V19.7734Z" fill="#EFEFEF"/>
<path d="M25.0454 22.4089V19.7722H22.4087V22.4089H25.0454Z" fill="#EFEFEF"/>
<path fill-rule="evenodd" clip-rule="evenodd" d="M9.22778 1.31777C9.22778 0.589796 8.63799 0 7.91001 0C7.18203 0 6.59224 0.589796 6.59224 1.31777V2.63555H3.95557C1.77051 2.63667 0 4.40718 0 6.59111V25.0456C0 25.1826 0.00674053 25.3174 0.0202216 25.45C0.222437 27.4441 1.90645 29 3.95444 29H27.6822C29.8662 29 31.6367 27.2295 31.6367 25.0456V6.59111C31.6367 4.40718 29.8662 2.63667 27.6822 2.63667H26.3645V1.3189C26.3645 0.59092 25.7747 0.00112342 25.0467 0.00112342C24.3187 0.00112342 23.7289 0.59092 23.7289 1.3189V2.63667H9.22778V1.3189V1.31777ZM29 7.90889V6.59111C29 5.86314 28.4102 5.27334 27.6822 5.27334H3.95444C3.22647 5.27334 2.63667 5.86314 2.63667 6.59111V7.90889H29.0011H29ZM2.63667 10.5456V25.0456C2.63667 25.7735 3.22647 26.3633 3.95444 26.3633H27.6822C28.4068 26.3633 28.9955 25.778 29 25.0534V10.5456H2.63667Z" fill="#EFEFEF"/>
</svg>
