<svg width="11" height="10" viewBox="0 0 11 10" fill="none" xmlns="http://www.w3.org/2000/svg">
<path d="M4 10C3.86739 10 3.74021 9.94732 3.64645 9.85355C3.55268 9.75979 3.5 9.63261 3.5 9.5V8H1.5C1.23478 8 0.98043 7.89464 0.792893 7.70711C0.605357 7.51957 0.5 7.26522 0.5 7V1C0.5 0.445 0.95 0 1.5 0H9.5C9.76522 0 10.0196 0.105357 10.2071 0.292893C10.3946 0.48043 10.5 0.734784 10.5 1V7C10.5 7.26522 10.3946 7.51957 10.2071 7.70711C10.0196 7.89464 9.76522 8 9.5 8H6.45L4.6 9.855C4.5 9.95 4.375 10 4.25 10H4Z" fill="#97979C"/>
</svg>
