<?xml version="1.0" encoding="UTF-8"?>
<svg id="icon" xmlns="http://www.w3.org/2000/svg" viewBox="0 0 240 240">
  <defs>
    <style>
      .cls-1 {
        fill: #fbbc05;
      }

      .cls-2 {
        fill: #ea4335;
      }

      .cls-3 {
        fill: #fff;
      }

      .cls-4 {
        fill: #747775;
      }

      .cls-5 {
        fill: #4285f4;
      }

      .cls-6 {
        fill: #34a853;
      }
    </style>
  </defs>
  <g>
    <circle class="cls-3" cx="120" cy="120" r="117.69"/>
    <path class="cls-4" d="m120,4.62c30.69,0,59.63,12.04,81.49,33.9,21.86,21.86,33.9,50.8,33.9,81.49s-12.04,59.63-33.9,81.49c-21.86,21.86-50.8,33.9-81.49,33.9s-59.63-12.04-81.49-33.9C16.65,179.63,4.62,150.69,4.62,120s12.04-59.63,33.9-81.49C60.37,16.65,89.31,4.62,120,4.62m0-4.62h0C54,0,0,54,0,120h0c0,66,54,120,120,120h0c66,0,120-54,120-120h0C240,54,186,0,120,0h0Z"/>
  </g>
  <path class="cls-5" d="m172.58,121.24c0-3.88-.35-7.62-1-11.2h-51.58v21.21h29.48c-1.29,6.82-5.18,12.6-11,16.48v13.79h17.78c10.36-9.56,16.33-23.6,16.33-40.28Z"/>
  <path class="cls-6" d="m120,174.77c14.79,0,27.19-4.88,36.25-13.24l-17.78-13.79c-4.88,3.29-11.1,5.28-18.47,5.28-14.24,0-26.34-9.61-30.67-22.56h-18.22v14.14c9.01,17.88,27.49,30.17,48.9,30.17Z"/>
  <path class="cls-1" d="m89.33,130.41c-1.1-3.29-1.74-6.77-1.74-10.41s.65-7.12,1.74-10.41v-14.14h-18.22c-3.73,7.37-5.88,15.68-5.88,24.55s2.14,17.18,5.88,24.55l14.19-11.05,4.03-3.09Z"/>
  <path class="cls-2" d="m120,87.04c8.07,0,15.24,2.79,20.96,8.17l15.68-15.68c-9.51-8.86-21.86-14.29-36.65-14.29-21.41,0-39.88,12.3-48.9,30.22l18.22,14.14c4.33-12.95,16.43-22.56,30.67-22.56Z"/>
</svg>