<?xml version="1.0" encoding="UTF-8"?>
<svg id="icon" xmlns="http://www.w3.org/2000/svg" viewBox="0 0 240 240">
  <defs>
    <style>
      .cls-1 {
        fill: #fff;
      }
    </style>
  </defs>
  <rect x="0" y="0" width="240" height="240" rx="120" ry="120"/>
  <g>
    <path class="cls-1" d="m160.7,94.89c-.64.5-11.99,6.89-11.99,21.1,0,16.44,14.43,22.26,14.87,22.4-.07.35-2.29,7.97-7.61,15.72-4.74,6.82-9.69,13.64-17.23,13.64s-9.47-4.38-18.17-4.38-11.49,4.52-18.38,4.52-11.7-6.31-17.23-14.07c-6.4-9.11-11.58-23.25-11.58-36.68,0-21.54,14-32.96,27.78-32.96,7.32,0,13.43,4.81,18.02,4.81s11.2-5.1,19.53-5.1c3.16,0,14.5.29,21.97,10.99h0Z"/>
    <path class="cls-1" d="m134.78,74.79c3.45-4.09,5.88-9.76,5.88-15.43,0-.79-.07-1.58-.21-2.23-5.61.21-12.27,3.73-16.3,8.4-3.16,3.59-6.1,9.26-6.1,15.01,0,.86.14,1.73.21,2.01.35.07.93.14,1.51.14,5.03,0,11.35-3.37,15.01-7.9h0Z"/>
  </g>
</svg>